<?xml version="1.0" encoding="UTF-8"?>
<svg version="1.1" xmlns="http://www.w3.org/2000/svg" width="512" height="512">
<path d="M0 0 C4.27985713 0.00516709 8.55970697 0.00033947 12.83956456 -0.00277233 C20.01946638 -0.00638191 27.19932668 -0.00169336 34.37922215 0.00790882 C42.60387145 0.0187833 50.82842145 0.01526278 59.05306834 0.00425601 C66.19532944 -0.00490875 73.33756117 -0.00605777 80.47982627 -0.00086665 C84.71015729 0.00220377 88.94044214 0.0028024 93.17076993 -0.00393963 C140.94315249 -0.0694955 192.18690877 1.83530498 230.41657567 34.26865101 C231.41237645 35.0459557 231.41237645 35.0459557 232.42829442 35.83896351 C259.48702038 57.68353335 269.81111025 96.01855552 273.74008489 128.98291492 C275.68422105 147.59542008 275.71495664 166.1980371 275.68522668 184.8850069 C275.68006039 189.16800123 275.68488691 193.45098825 275.68799901 197.73398304 C275.69160842 204.91808102 275.68692009 212.1021375 275.67731786 219.28622913 C275.66643923 227.5188508 275.66996698 235.7513733 275.68097067 243.98399258 C275.6901309 251.13133354 275.69128672 258.27864515 275.68609333 265.4259901 C275.68302102 269.66020163 275.68242991 273.89436701 275.68916631 278.12857533 C275.7544916 325.81349745 273.77548291 377.12672621 241.41657567 415.26865101 C240.63927098 416.26445179 240.63927098 416.26445179 239.84626317 417.28036976 C218.35116186 443.90621133 180.20570603 454.79148701 147.64504743 458.59216022 C128.67493322 460.49065267 109.73862011 460.56764644 90.69882584 460.53730202 C86.41850666 460.53213125 82.13819475 460.53696334 77.85787511 460.54007435 C70.67975347 460.54368212 63.50167338 460.53899942 56.32355809 460.5293932 C48.09830002 460.51851072 39.87314118 460.52204579 31.6478855 460.53304601 C24.50477062 460.54220598 17.36168511 460.5433623 10.21856624 460.53816867 C5.98772306 460.53509676 1.75692606 460.53450417 -2.47391391 460.54124165 C-50.14911972 460.60661877 -101.45026563 458.62012125 -139.58342433 426.26865101 C-140.57922511 425.49134632 -140.57922511 425.49134632 -141.59514308 424.69833851 C-168.22080202 403.20338464 -179.10703534 365.05722921 -182.90693355 332.49655628 C-184.80386537 313.53742732 -184.88243119 294.61256357 -184.85207534 275.58383274 C-184.84690377 271.30665076 -184.85173695 267.02947603 -184.85484767 262.75229359 C-184.85845562 255.5783681 -184.8537727 248.4044842 -184.84416652 241.23056507 C-184.83328818 233.01327937 -184.83681603 224.79609304 -184.84781933 216.57880974 C-184.85698384 209.44077472 -184.85813335 202.30276909 -184.85294199 195.16473007 C-184.84987196 190.9377674 -184.84927185 186.71085093 -184.85601497 182.48389149 C-184.92162298 134.72123667 -183.00932634 83.48954354 -150.58342433 45.26865101 C-150.0652212 44.60478382 -149.54701808 43.94091663 -149.01311183 43.25693226 C-127.16870718 16.19841091 -88.83296032 5.87329743 -55.86859393 1.94514179 C-37.26705512 0.00264407 -18.67591819 -0.0297408 0 0 Z M-123.58342433 64.26865101 C-152.73661822 97.07162651 -151.91755767 143.54577697 -151.85207534 184.81654453 C-151.84691431 189.10535121 -151.85173419 193.39415052 -151.85484767 197.68295765 C-151.85845853 204.87722812 -151.85376481 212.07145718 -151.84416652 219.26572132 C-151.8332876 227.51367896 -151.83681524 235.76153762 -151.84781933 244.00949287 C-151.85697529 251.16613978 -151.8581374 258.32275737 -151.85294199 265.47940826 C-151.8498674 269.72086864 -151.84928525 273.96228294 -151.85601497 278.20374012 C-152.10412089 342.69701607 -152.10412089 342.69701607 -122.03654933 397.84335804 C-90.54512789 428.73161718 -41.64192472 427.6012282 -0.70013499 427.53730202 C3.65053844 427.53214771 8.00120453 427.53695909 12.3518784 427.54007435 C19.65047807 427.54368708 26.94903693 427.53898644 34.24763036 427.5293932 C42.61998668 427.51851391 50.9922455 427.52204141 59.36459947 427.53304601 C66.6239697 427.5421965 73.88331102 427.54336668 81.14268517 427.53816867 C85.44728555 427.53509115 89.75184049 427.53452048 94.05643773 427.54124165 C158.18212387 427.70705844 158.18212387 427.70705844 212.9912827 397.72177601 C244.028744 366.07823889 242.75047551 316.84435638 242.68522668 275.72075748 C242.68006565 271.43195081 242.68488553 267.1431515 242.68799901 262.85434437 C242.69160987 255.66007389 242.68691615 248.46584484 242.67731786 241.2715807 C242.66643894 233.02362305 242.66996658 224.77576439 242.68097067 216.52780914 C242.69012663 209.37116223 242.69128874 202.21454464 242.68609333 195.05789375 C242.68301874 190.81643337 242.68243659 186.57501908 242.68916631 182.3335619 C242.93727223 117.84028595 242.93727223 117.84028595 212.86970067 62.69394398 C185.97015962 36.30961591 145.12026506 33.10931617 109.50471044 33.12338734 C107.96362788 33.1203861 106.42254606 33.1169814 104.8814652 33.11320972 C100.73624994 33.10446057 96.59105538 33.1020354 92.44583178 33.10139394 C89.84213879 33.1006779 87.2384509 33.09853317 84.63475919 33.09589672 C75.51132815 33.0866712 66.38791161 33.08255805 57.26447606 33.08334827 C48.82585363 33.08394733 40.38729548 33.07342206 31.94868928 33.05760461 C24.6512896 33.04442493 17.35391064 33.03916875 10.05649918 33.03980368 C5.72157669 33.04005576 1.38671136 33.03736889 -2.94819903 33.02662563 C-68.34107263 32.79053282 -68.34107263 32.79053282 -123.58342433 64.26865101 Z " fill="#f59342" transform="translate(210.5834243297577,25.731348991394043)"/>
<path d="M0 0 C1.00515152 -0.00571014 2.01030304 -0.01142029 3.0459137 -0.01730347 C4.14779022 -0.01842133 5.24966675 -0.01953918 6.38493347 -0.02069092 C8.12677666 -0.02813828 8.12677666 -0.02813828 9.90380859 -0.03573608 C13.75453784 -0.05036979 17.60522589 -0.0571617 21.45597839 -0.06268311 C23.45270073 -0.06698061 25.44942307 -0.07127862 27.44614524 -0.07565761 C33.01059782 -0.08746841 38.57504041 -0.09500584 44.13950425 -0.09845281 C51.33035137 -0.10293199 58.52100825 -0.12047437 65.71179754 -0.1494534 C71.27369315 -0.17108802 76.83553532 -0.18115805 82.39747256 -0.18249393 C85.7176505 -0.18354076 89.03760904 -0.19087273 92.35775185 -0.20731354 C96.06357384 -0.22435435 99.76893202 -0.22249825 103.47477722 -0.21600342 C104.57058105 -0.2252182 105.66638489 -0.23443298 106.7953949 -0.243927 C113.1008808 -0.20928234 117.93771777 0.16612327 122.76847839 4.67559814 C127.33236199 10.64375361 127.88491466 14.66816366 127.12394714 22.14044189 C124.93868373 26.59190441 122.18449504 29.32929335 118.12394714 32.14044189 C115.19174554 33.11784243 113.27908889 33.27497393 110.22338867 33.29434204 C109.21271332 33.3029425 108.20203796 33.31154297 107.16073608 33.32040405 C106.05265091 33.324664 104.94456573 33.32892395 103.80290222 33.33331299 C102.63513245 33.34149048 101.46736267 33.34966797 100.26420593 33.35809326 C96.39063532 33.38295284 92.51710138 33.39946515 88.64347839 33.41387939 C87.30791912 33.4192409 85.97235991 33.42461842 84.63680077 33.43001175 C79.07878588 33.45163749 73.52077385 33.47037187 67.96272755 33.48163414 C60.00924487 33.49785846 52.05625185 33.53100194 44.10295373 33.58803499 C38.50451309 33.62680583 32.906203 33.64627535 27.30763167 33.6515547 C23.9670187 33.65519926 20.62734198 33.66964043 17.28679848 33.69965744 C13.55480931 33.7312775 9.8240527 33.73134939 6.09196472 33.72393799 C4.44501869 33.74854599 4.44501869 33.74854599 2.76480103 33.77365112 C-4.0491245 33.71833992 -8.6222802 32.61401454 -13.87605286 28.14044189 C-17.35595221 24.09926846 -18.00173858 19.35639961 -17.87605286 14.14044189 C-16.23402979 8.08548185 -12.9597719 4.58350616 -7.87605286 1.14044189 C-4.94510026 0.1634577 -3.05298363 0.01038653 0 0 Z " fill="#f59342" transform="translate(264.8760528564453,321.85955810546875)"/>
<path d="M0 0 C1.17971375 -0.00700928 2.35942749 -0.01401855 3.57489014 -0.02124023 C6.79407575 -0.03578042 10.01259831 -0.03244103 13.23177338 -0.01972389 C16.61042101 -0.00955304 19.9890263 -0.01900085 23.36767578 -0.02526855 C29.04011922 -0.03253316 34.71235392 -0.02298869 40.38476562 -0.00390625 C46.93043561 0.01786047 53.47560712 0.01080824 60.02126503 -0.01121187 C65.65463318 -0.02939998 71.28785181 -0.03190764 76.92123985 -0.0214572 C80.27995339 -0.01524087 83.6384331 -0.01433484 86.99713135 -0.02760315 C90.7432208 -0.03777463 94.48835648 -0.02225699 98.234375 0 C99.89131378 -0.01214539 99.89131378 -0.01214539 101.58172607 -0.02453613 C107.97764362 0.04577489 111.93356956 0.671184 117.1171875 4.51757812 C121.08742568 9.50582609 121.7603878 13.5955375 121.5 19.93164062 C120.72080573 25.19517744 118.17104143 27.72181087 114.0546875 30.83007812 C110.27304783 33.00250943 107.60820053 33.64317155 103.3237915 33.65802002 C102.33691345 33.66373016 101.3500354 33.66944031 100.33325195 33.67532349 C99.25164795 33.67644135 98.17004395 33.6775592 97.05566406 33.67871094 C95.34549103 33.68615829 95.34549103 33.68615829 93.60076904 33.6937561 C89.81977744 33.70839019 86.0388278 33.71518212 82.2578125 33.72070312 C79.63328042 33.72645391 77.00874836 33.73221165 74.38421631 33.73797607 C69.58057642 33.74754736 64.77694561 33.75344406 59.97329736 33.75647283 C52.91206982 33.76094987 45.85103622 33.77848181 38.78986764 33.80747342 C32.66723022 33.83173545 26.54467257 33.83941917 20.42198944 33.84114838 C17.82088923 33.84417516 15.21978984 33.8522045 12.61872101 33.86533356 C8.97776125 33.88239833 5.33727265 33.88051229 1.69628906 33.87402344 C0.62278198 33.88323822 -0.4507251 33.892453 -1.5567627 33.90194702 C-9.04987665 33.86013969 -14.19395616 33.20643447 -19.6953125 27.70507812 C-23.21037709 22.58312687 -24.43716924 18.56283873 -23.4140625 12.47070312 C-22.15271891 7.83341053 -19.78108342 5.17897933 -15.97705078 2.37805176 C-10.90206024 -0.39422678 -5.65119453 -0.04142334 0 0 Z " fill="#f59342" transform="translate(270.8828125,172.482421875)"/>
<path d="M0 0 C3.84079366 3.22975831 6.37402257 5.7727341 7.1328125 10.8984375 C7.44461449 18.48561919 5.56159081 23.14623745 0.53363037 28.80845642 C-2.32258338 31.78213587 -5.22344322 34.70367095 -8.1484375 37.609375 C-9.22737692 38.69033852 -10.30587093 39.77174677 -11.38394165 40.85357666 C-13.63686354 43.11090415 -15.89507747 45.36276049 -18.15722656 47.61083984 C-21.04791201 50.48441401 -23.92489038 53.3712767 -26.79804039 56.26237106 C-29.01973569 58.49493436 -31.24856079 60.72026946 -33.4795723 62.94351959 C-34.54304469 64.00499939 -35.60431705 65.06868834 -36.66328049 66.13466644 C-38.14644866 67.62550113 -39.63898022 69.10630461 -41.13427734 70.58496094 C-41.97936859 71.42766541 -42.82445984 72.27036987 -43.69515991 73.13861084 C-47.8380767 76.66377937 -51.76965322 78.74019564 -57.25 78.6875 C-58.4565625 78.69910156 -58.4565625 78.69910156 -59.6875 78.7109375 C-67.58636627 77.48276012 -72.5270153 71.58556584 -77.9375 66.1875 C-78.79150391 65.37023437 -79.64550781 64.55296875 -80.52539062 63.7109375 C-86.39744458 57.88039846 -89.97905316 52.90174632 -90.38671875 44.4921875 C-89.25025218 38.66161988 -87.28335976 35.23562148 -82.52734375 31.59765625 C-78.07984485 29.08783268 -74.03976639 28.73046241 -69.078125 29.765625 C-64.33848555 31.29798963 -61.48452389 33.57258175 -58.25 37.3125 C-55.08497859 35.91710087 -53.00310709 34.29020496 -50.60229492 31.8125 C-49.55551826 30.74128906 -49.55551826 30.74128906 -48.4875946 29.6484375 C-47.74274307 28.87757813 -46.99789154 28.10671875 -46.23046875 27.3125 C-44.63520345 25.68707019 -43.03948618 24.06208385 -41.44335938 22.4375 C-38.93657029 19.8749499 -36.43386107 17.30874479 -33.93920898 14.734375 C-31.52666408 12.24917025 -29.09861319 9.77998784 -26.66796875 7.3125 C-25.92918991 6.54164063 -25.19041107 5.77078125 -24.429245 4.9765625 C-17.14399622 -2.37906638 -9.59767603 -4.98340871 0 0 Z " fill="#f59342" transform="translate(209.25,292.6875)"/>
<path d="M0 0 C3.88446678 2.58964452 6.69907021 5.64814041 8.8125 9.875 C9.05078125 12.265625 9.05078125 12.265625 9.125 15.125 C9.18107422 16.52492187 9.18107422 16.52492187 9.23828125 17.953125 C8.37005055 23.91125864 3.86353975 28.07716315 -0.24389648 32.20605469 C-0.73388123 32.70115036 -1.22386597 33.19624603 -1.72869873 33.7063446 C-3.33357451 35.32500746 -4.9456551 36.93624924 -6.55859375 38.546875 C-7.68455021 39.67672276 -8.81028418 40.80679229 -9.93580627 41.93707275 C-12.28853221 44.29723626 -14.64506442 46.65351854 -17.00415039 49.00732422 C-20.02324439 52.02060952 -23.03078575 55.04514184 -26.03536892 58.07288742 C-28.35416164 60.40642069 -30.67985362 62.732981 -33.00758553 65.0575943 C-34.11947876 66.17000001 -35.22901841 67.2847635 -36.3361187 68.40193939 C-37.88423506 69.96241662 -39.44162579 71.51302233 -41.00170898 73.06152344 C-42.32597145 74.38673004 -42.32597145 74.38673004 -43.67698669 75.7387085 C-47.83985308 79.28105024 -51.6111846 80.36385348 -57.10009766 80.17944336 C-65.13615307 79.00740113 -70.61342479 73.00473704 -76 67.4375 C-76.74958984 66.68662109 -77.49917969 65.93574219 -78.27148438 65.16210938 C-84.03852233 59.30230405 -88.1875 54.50264071 -88.1875 45.875 C-87.25276816 40.86143833 -85.86071 37.44893406 -82.1875 33.875 C-76.92744853 30.94150975 -73.0561646 30.31607956 -67.1875 30.875 C-62.37404936 32.70411124 -59.0626961 35.59557504 -55.1875 38.875 C-54.73950546 38.41812302 -54.29151093 37.96124603 -53.8299408 37.49052429 C-49.15350561 32.72540403 -44.46289813 27.97457498 -39.76391602 23.23168945 C-38.01351512 21.4612081 -36.26672553 19.68714865 -34.52368164 17.90942383 C-32.0135515 15.35062279 -29.49059556 12.80508965 -26.96484375 10.26171875 C-26.19164291 9.46787277 -25.41844208 8.67402679 -24.62181091 7.85612488 C-17.40996089 0.64133139 -10.34453919 -3.65101383 0 0 Z " fill="#f59342" transform="translate(207.1875,142.125)"/>
</svg>
